<?xml version="1.0" encoding="UTF-8" standalone="no"?>
<svg width="31px" height="30px" viewBox="0 0 31 30" version="1.1" xmlns="http://www.w3.org/2000/svg" xmlns:xlink="http://www.w3.org/1999/xlink" xmlns:sketch="http://www.bohemiancoding.com/sketch/ns">
    <!-- Generator: Sketch 3.3.3 (12072) - http://www.bohemiancoding.com/sketch -->
    <title>Actions-Share</title>
    <desc>Created with Sketch.</desc>
    <defs></defs>
    <g id="Student-View" stroke="none" stroke-width="1" fill="none" fill-rule="evenodd" sketch:type="MSPage">
        <g id="Content-Overlay" sketch:type="MSArtboardGroup" transform="translate(-280.000000, -409.000000)">
            <g id="Content" sketch:type="MSLayerGroup" transform="translate(21.000000, 85.000000)">
                <g id="Actions" transform="translate(34.000000, 324.000000)" sketch:type="MSShapeGroup">
                    <g id="basic3-124_open_new_window_share" transform="translate(225.000000, 0.000000)">
                        <g id="Group" transform="translate(5.000000, 5.000000)">
                            <path d="M20.4898235,4.98689362 L15.2855294,0.505723404 C15.078,0.358170213 14.8033529,0.336744681 14.5748235,0.451148936 C14.5138824,0.48187234 14.4591176,0.521893617 14.4113529,0.567574468 C14.4076471,0.57 14.4047647,0.571212766 14.4014706,0.574042553 C14.3664706,0.608404255 14.336,0.648021277 14.3096471,0.688851064 C14.3022353,0.698957447 14.2972941,0.711085106 14.2911176,0.722404255 C14.2701176,0.759595745 14.2528235,0.798404255 14.2384118,0.839638298 C14.2342941,0.853787234 14.2293529,0.869148936 14.2252353,0.884106383 C14.2112353,0.936659574 14.2017647,0.991638298 14.2017647,1.04742553 L14.2017647,2.05119149 L14.2013529,3.03676596 C14.1873529,3.03676596 14.1754118,3.03110638 14.1618235,3.0327234 C8.00470588,3.64314894 3.53582353,6.63302128 3.53582353,10.1435745 C3.53582353,12.6426809 5.77788235,14.9230851 9.53358824,16.243383 C9.57723529,16.2587447 9.62211765,16.2660213 9.66617647,16.2660213 C9.82058824,16.2660213 9.96676471,16.1758723 10.0293529,16.0279149 C10.1092353,15.8375106 10.0235882,15.619617 9.83417647,15.5310851 C7.98823529,14.6764894 6.92958824,13.448766 6.92958824,12.163234 C6.92958824,9.99278723 9.98652941,8.2233617 14.2017647,7.95089362 L14.2013529,10.0105745 C14.2013529,10.2624255 14.3454706,10.4932553 14.5744118,10.6072553 C14.6209412,10.6307021 14.6699412,10.6460638 14.7197647,10.6565745 C14.7642353,10.6678936 14.8091176,10.6719362 14.8548235,10.6739574 L14.8556471,10.6739574 C15.0067647,10.6800213 15.1587059,10.6440426 15.2855294,10.5530851 L20.4902353,6.07070213 C20.6664706,5.94457447 20.7710588,5.74365957 20.7718824,5.529 C20.7710588,5.31555319 20.6660588,5.11342553 20.4898235,4.98689362 L20.4898235,4.98689362 Z" id="Shape" stroke="#474A56" stroke-width="1.3"></path>
                            <path d="M19.299,9.68434043 C18.9028824,9.68434043 18.5812941,9.99965957 18.5812941,10.3889574 L18.5812941,17.3065745 L1.64005882,17.3065745 L1.64005882,4.61982979 L5.20017647,4.61982979 C5.59670588,4.61982979 5.91788235,4.30491489 5.91788235,3.91561702 C5.91788235,3.5267234 5.59670588,3.211 5.20017647,3.211 L0.922352941,3.211 C0.525823529,3.211 0.204647059,3.5267234 0.204647059,3.91561702 L0.204647059,18.0107872 C0.204647059,18.4000851 0.525823529,18.7154043 0.922352941,18.7154043 L19.299,18.7154043 C19.6951176,18.7154043 20.0167059,18.4000851 20.0167059,18.0107872 L20.0167059,10.3889574 C20.0167059,9.99965957 19.6955294,9.68434043 19.299,9.68434043 L19.299,9.68434043 Z" id="Shape" fill="#474A56"></path>
                        </g>
                    </g>
                </g>
            </g>
        </g>
    </g>
</svg>