<?xml version="1.0" encoding="UTF-8" standalone="no"?>
<svg width="31px" height="30px" viewBox="0 0 31 30" version="1.1" xmlns="http://www.w3.org/2000/svg" xmlns:xlink="http://www.w3.org/1999/xlink" xmlns:sketch="http://www.bohemiancoding.com/sketch/ns">
    <!-- Generator: Sketch 3.3.3 (12072) - http://www.bohemiancoding.com/sketch -->
    <title>Actions-ThumbsUp</title>
    <desc>Created with Sketch.</desc>
    <defs></defs>
    <g id="Student-View" stroke="none" stroke-width="1" fill="none" fill-rule="evenodd" sketch:type="MSPage">
        <g id="Content-Overlay" sketch:type="MSArtboardGroup" transform="translate(-67.000000, -409.000000)" fill="#474A56">
            <g id="Content" sketch:type="MSLayerGroup" transform="translate(21.000000, 85.000000)">
                <g id="Actions" transform="translate(34.000000, 324.000000)" sketch:type="MSShapeGroup">
                    <g id="basic2-073_thumbs_down_dislike" transform="translate(27.500000, 15.000000) scale(1, -1) translate(-27.500000, -15.000000) translate(12.000000, 0.000000)">
                        <path d="M23.09325,8.36175 C23.0127,8.1600625 22.8129,8.026625 22.59015,8.026625 L20.46075,8.026625 C19.35645,6.8108125 18.14415,5.9008125 16.8549,5.319375 C16.7973,5.2926875 16.73475,5.277375 16.67175,5.2725625 C16.25685,5.2401875 12.6366,5.22575 12.6015,5.22575 C10.2111,5.22575 9.95325,6.7688125 9.95325,7.4320625 C9.95325,7.4574375 9.95415,7.485 9.95685,7.5151875 C8.8161,7.6770625 8.2158,8.3096875 8.2158,9.35575 C8.2158,9.417 8.2212,9.703125 8.2347,9.9328125 C7.84185,10.0684375 7.5327,10.2675 7.3176,10.525625 C6.93015,10.9749375 6.9252,11.9663125 6.9252,11.9759375 C6.9252,12.301 7.026,12.6409375 7.2231,12.98875 C7.1484,13.061375 7.0809,13.1221875 7.0197,13.17775 C6.6354,13.5246875 6.40185,13.7845625 6.40185,14.4740625 C6.40185,15.5328125 7.05615,15.9729375 7.9827,16.4804375 C8.99025,17.0255625 10.32855,17.301625 11.9598,17.301625 L12.08715,17.301625 C11.9454,18.1306875 11.6664,18.944 11.2659,19.707875 L10.9887,20.17775 C10.401,21.2715 10.11525,22.101 10.11525,22.7139375 C10.11525,24.411875 11.04315,25.4850625 12.86745,25.902 L13.04565,25.944 C13.0884,25.9549375 13.13115,25.9593125 13.1748,25.9593125 C13.2747,25.9593125 13.3728,25.932625 13.4592,25.8805625 C13.5825,25.8070625 13.67025,25.687625 13.70265,25.5498125 L14.442,22.367 L17.43675,19.26775 C17.62755,19.05075 17.95155,18.64475 18.5181,17.910625 L18.978,17.32 C19.5684,16.5416875 19.83885,16.2748125 19.9662,16.186 C20.1219,16.074 20.4072,16.0149375 20.7933,16.0149375 L22.5168,16.0149375 C22.73055,16.0149375 22.9236,15.892 23.0109,15.703 C23.55585,14.5134375 23.83215,13.2775 23.83215,12.0293125 C23.8317,10.8191875 23.5833,9.5845625 23.09325,8.36175 L23.09325,8.36175 Z M22.029,14.6901875 C20.07015,14.70025 19.65615,14.8888125 19.52025,14.9500625 C19.37625,15.0148125 18.9384,15.2099375 17.8557,16.69 C17.8539,16.692625 17.8521,16.69525 17.8503,16.697 C17.5947,17.0369375 17.2023,17.527375 16.6065,18.2514375 L13.38135,21.59 C13.3143,21.66 13.2675,21.7461875 13.2468,21.839375 L12.6708,24.4403125 C12.29505,24.282375 12.00525,24.0780625 11.805,23.8295625 C11.56695,23.5338125 11.4459,23.158875 11.4459,22.71525 C11.4459,22.238375 11.6214,21.7138125 11.9724,21.148125 L12.18075,20.8011875 C13.05285,19.39375 13.49565,18.0239375 13.49565,16.7516875 L13.50105,16.5968125 C13.50645,16.4541875 13.45245,16.3155 13.3503,16.21225 C13.24815,16.11075 13.10775,16.0525625 12.96105,16.0525625 L12.67935,16.0525625 C10.9851,16.0525625 9.69945,15.889375 8.85885,15.5695625 C7.79865,15.16225 7.6992,14.9710625 7.6992,14.56725 C7.6992,14.0978125 7.82115,13.9324375 8.30625,13.479625 C8.4723,13.3234375 8.65905,13.25475 8.9133,13.22675 C9.0663,13.2394375 9.2787,13.2473125 9.5874,13.2079375 L9.8106,13.2088125 L10.257,13.197 L10.2597,13.197 L10.2597,13.197 L10.2606,13.197 C10.31685,13.196125 10.37085,13.1860625 10.42125,13.1685625 L10.42215,13.168125 C10.50405,13.141 10.57605,13.0941875 10.63455,13.0346875 L10.635,13.0346875 L10.635,13.0338125 L10.6359,13.0338125 L10.6359,13.0338125 L10.6359,13.0325 C10.69305,12.9743125 10.73625,12.9034375 10.7601,12.8246875 C10.7754,12.7756875 10.78395,12.7231875 10.7835,12.6689375 L10.7835,12.6685 L10.7835,12.664125 C10.7826,12.5919375 10.76685,12.52325 10.7385,12.4615625 L10.7385,12.4615625 L10.7385,12.4606875 L10.7385,12.46025 C10.7385,12.46025 10.7385,12.46025 10.7376,12.4598125 C10.7376,12.46025 10.7385,12.4598125 10.7376,12.4589375 C10.7376,12.4589375 10.7376,12.4589375 10.7367,12.4585 L10.7367,12.457625 C10.71465,12.410375 10.6863,12.36575 10.65165,12.32725 C10.65165,12.32725 10.65165,12.32725 10.65075,12.326375 L10.65075,12.326375 C10.65075,12.326375 10.65075,12.3259375 10.6503,12.3259375 L10.6503,12.3255 L10.64985,12.3255 C10.6494,12.3255 10.6494,12.324625 10.64895,12.324625 C10.5864,12.2555 10.50585,12.2016875 10.41405,12.172375 L10.41315,12.1719375 L10.4127,12.1719375 C10.4118,12.1719375 10.4118,12.1719375 10.4118,12.1715 C10.35555,12.154 10.2957,12.142625 10.23405,12.14525 L9.5514,12.1553125 C9.339,12.1535625 9.12525,12.15225 8.9124,12.1693125 C8.7585,12.154 8.57535,12.1404375 8.3409,12.219625 C8.2968,12.1308125 8.27385,12.0476875 8.27385,11.9755 C8.27385,11.7659375 8.3643,11.2864375 8.63925,11.145125 C8.7702,11.0808125 8.93445,11.0309375 9.13155,10.9950625 L11.2245,10.9268125 C11.2857,10.9250625 11.3442,10.9136875 11.3982,10.894 L11.3982,10.894 C11.4738,10.8664375 11.5404,10.8235625 11.5953,10.768875 L11.5953,10.768875 L11.5953,10.7684375 C11.65155,10.7124375 11.6952,10.6450625 11.7204,10.5689375 L11.7204,10.5689375 C11.7204,10.5689375 11.7204,10.5689375 11.7204,10.5680625 C11.7402,10.513375 11.7492,10.453875 11.7483,10.3930625 C11.7474,10.333125 11.73615,10.2766875 11.7168,10.22375 L11.7168,10.2233125 C11.6862,10.1401875 11.63445,10.0675625 11.5683,10.009375 L11.5683,10.009375 C11.51655,9.963875 11.45535,9.928875 11.3883,9.906125 L11.3883,9.906125 L11.38785,9.906125 C11.33115,9.8864375 11.2767,9.871125 11.2065,9.876375 L10.02615,9.876375 C9.8394,9.876375 9.66345,9.8825 9.49695,9.8943125 L9.45285,9.6991875 C9.45825,9.4856875 9.546,9.0495 9.79845,8.92525 C10.0077,8.822 10.30515,8.7559375 10.6863,8.7288125 L11.80815,8.714375 C11.86935,8.7135 11.9274,8.7034375 11.98185,8.684625 L11.9823,8.684625 C11.98185,8.68375 11.9823,8.6841875 11.98275,8.6841875 C12.06105,8.6570625 12.13035,8.61375 12.18705,8.5581875 L12.18705,8.5581875 L12.18705,8.5573125 C12.2424,8.502625 12.28605,8.436125 12.31215,8.3613125 L12.31215,8.3613125 C12.3126,8.360875 12.31215,8.360875 12.31305,8.360875 C12.3324,8.3053125 12.3423,8.24625 12.34185,8.185 L12.34185,8.184125 C12.3414,8.1259375 12.3315,8.0699375 12.3126,8.0174375 L12.3126,8.0174375 L12.31215,8.0165625 C12.2838,7.9360625 12.23565,7.8651875 12.1731,7.807 C12.1731,7.807 12.1722,7.807 12.1722,7.8065625 C12.1722,7.8065625 12.1722,7.806125 12.1713,7.806125 L12.1713,7.806125 C12.11775,7.7566875 12.0534,7.7181875 11.9823,7.69325 L11.98185,7.69325 C11.92515,7.6735625 11.8644,7.6635 11.80185,7.6635 L11.8005,7.6635 L11.2452,7.6635 L11.2488,7.608375 C11.25015,7.597875 11.25015,7.585625 11.25015,7.5746875 C11.25015,7.1695625 11.42835,6.745625 11.5431,6.6690625 C11.76585,6.5203125 12.12225,6.4450625 12.6015,6.4450625 C12.62895,6.4450625 12.65595,6.4424375 12.6825,6.4389375 C12.73965,6.448125 12.7995,6.449 12.85935,6.4398125 C13.0488,6.4100625 14.2341,6.3895 15.7407,6.3895 L15.83295,6.3895 L16.47195,6.41575 C17.82735,7.1826875 18.85965,8.04325 19.71645,9.1181875 C19.81905,9.246375 19.97655,9.3220625 20.1435,9.3220625 L22.07625,9.3220625 C22.36875,10.193125 22.5168,11.0458125 22.5168,11.8578125 C22.5168,12.814625 22.353,13.7675 22.029,14.6901875 L22.029,14.6901875 Z" id="Shape"></path>
                    </g>
                </g>
            </g>
        </g>
    </g>
</svg>