<?xml version="1.0" encoding="UTF-8" standalone="no"?>
<svg width="31px" height="30px" viewBox="0 0 31 30" version="1.1" xmlns="http://www.w3.org/2000/svg" xmlns:xlink="http://www.w3.org/1999/xlink" xmlns:sketch="http://www.bohemiancoding.com/sketch/ns">
    <!-- Generator: Sketch 3.3.3 (12072) - http://www.bohemiancoding.com/sketch -->
    <title>Actions-Flag</title>
    <desc>Created with Sketch.</desc>
    <defs></defs>
    <g id="Student-View" stroke="none" stroke-width="1" fill="none" fill-rule="evenodd" sketch:type="MSPage">
        <g id="Content-Overlay" sketch:type="MSArtboardGroup" transform="translate(-172.000000, -409.000000)">
            <g id="Content" sketch:type="MSLayerGroup" transform="translate(21.000000, 85.000000)">
                <g id="Actions" transform="translate(34.000000, 324.000000)" sketch:type="MSShapeGroup">
                    <g id="basic1-129_flag" transform="translate(117.000000, 0.000000)">
                        <g id="Group" transform="translate(8.000000, 4.000000)">
                            <path d="M3.04126316,1.86741176 L3.04126316,12.5046275 C6.96884211,13.4614118 11.568,9.2792549 15.6,10.9413333 L15.6,2.54596078 C11.2450526,-1.39635294 7.34273684,4.0527451 3.04126316,1.86741176 L3.04126316,1.86741176 Z" id="Shape" stroke="#474A56" stroke-width="1.3"></path>
                            <path d="M0.997052632,0.276941176 C0.590315789,0.276941176 0.260631579,0.614705882 0.260631579,1.03184314 L0.260631579,20.8469412 C0.260631579,21.2645098 0.590315789,21.6022745 0.997052632,21.6022745 C1.40421053,21.6022745 1.73389474,21.2645098 1.73389474,20.8469412 L1.73389474,1.03184314 C1.73389474,0.614705882 1.40421053,0.276941176 0.997052632,0.276941176 L0.997052632,0.276941176 Z" id="Shape" fill="#474A56"></path>
                        </g>
                    </g>
                </g>
            </g>
        </g>
    </g>
</svg>